<?xml version="1.0" standalone="no"?><!DOCTYPE svg PUBLIC "-//W3C//DTD SVG 1.1//EN" "http://www.w3.org/Graphics/SVG/1.1/DTD/svg11.dtd"><svg t="1756789832369" class="icon" viewBox="0 0 1024 1024" version="1.1" xmlns="http://www.w3.org/2000/svg" p-id="22456" xmlns:xlink="http://www.w3.org/1999/xlink" width="200" height="200"><path d="M959.5 101.5l-128 768c-1.5 9.5-7.5 17.5-16 22.5-4.5 2.5-10 4-15.5 4-4 0-8-1-12-2.5L561.5 801l-121 147.5c-6 7.5-15 11.5-24.5 11.5-3.5 0-7.5-0.5-11-2-12.5-4.5-21-16.5-21-30V753.5L816 224 281.5 686.5 84 605.5c-11.5-4.5-19-15-20-27.5-0.5-12 5.5-23.5 16-29.5l832-480c5-3 10.5-4.5 16-4.5 6.5 0 13 2 18 5.5 10.5 7.5 15.5 19.5 13.5 32z" fill="#fff" p-id="22457"></path></svg>