<svg xmlns="http://www.w3.org/2000/svg" xmlns:xlink="http://www.w3.org/1999/xlink" width="128" height="128" viewBox="0 0 128 128" fill="none">
<rect x="0" y="0" width="126.623291015625" height="128"   fill="#CCCCCC" fill-opacity="0">
</rect>
<path d="M63.3134 110.967C88.5201 110.967 108.955 89.9101 108.955 63.9338C108.955 37.9575 88.5201 16.8993 63.3134 16.8993C38.107 16.8993 17.6736 37.9575 17.6736 63.9338C17.6736 89.9101 38.107 110.967 63.3134 110.967Z"   fill="#00F69D" >
</path>
<path d="M60.8266 48.86C63.4656 48.86 65.605 46.6555 65.605 43.9359C65.605 41.2163 63.4656 39.0118 60.8266 39.0118C58.188 39.0118 56.0486 41.2163 56.0486 43.9359C56.0486 46.6555 58.188 48.86 60.8266 48.86Z"   fill="#000000" >
</path>
<path d="M84.6664 41.5051C86.7964 41.1004 88.1817 38.8593 87.7599 36.5002C87.3376 34.1415 85.2684 32.5571 83.1384 32.9622C81.0084 33.367 79.6227 35.6081 80.0449 37.9672C80.4672 40.3259 82.5364 41.9099 84.6664 41.5051Z"   fill="#000000" >
</path>
<path d="M66.5625 58.286C65.9647 58.1305 65.3345 58.2287 64.8038 58.5604C64.2733 58.892 63.8835 59.4316 63.7155 60.0655C63.547 60.7191 63.6259 61.4183 63.9345 62.0118C64.2435 62.6049 64.7573 63.0444 65.365 63.2346C66.657 63.6175 67.9735 63.8979 69.3035 64.0735C70.6464 64.2388 71.9977 64.3154 73.3489 64.3029C76.042 64.2895 78.7157 63.8315 81.2764 62.9451L82.2378 62.597L82.7175 62.3692L83.1974 62.1626C83.832 61.8503 84.4511 61.503 85.0517 61.1218C85.6416 60.7288 86.2114 60.3029 86.7593 59.8459C87.301 59.3843 87.8159 58.8868 88.3002 58.3572C88.7841 57.8358 89.2368 57.2823 89.6555 56.6994C90.0683 56.1055 90.4518 55.4887 90.8041 54.8515C91.5249 53.5559 92.0316 52.136 92.3023 50.6544C92.3445 50.2964 92.2648 49.9338 92.0776 49.6337C91.8905 49.3332 91.6084 49.1151 91.2837 49.0197C90.9591 48.9244 90.6139 48.9582 90.3113 49.1149C90.0088 49.2715 89.7695 49.5405 89.6376 49.8721C89.4547 50.3957 89.23 50.9015 88.9658 51.3836C88.6929 51.8781 88.3936 52.3556 88.0699 52.8134C87.3926 53.7386 86.6269 54.5847 85.7856 55.3385C84.956 56.0717 84.0485 56.697 83.0817 57.2017C82.6059 57.4703 82.1116 57.6995 81.6031 57.887L81.2224 58.0261L80.8416 58.1648L80.0595 58.4001C77.8804 58.9806 75.6368 59.2376 73.3907 59.1648C72.2537 59.1334 71.1184 59.0371 69.9904 58.8768C68.8836 58.7265 67.7856 58.5061 66.7025 58.2175L66.5625 58.286Z"   fill="#000000" >
</path>
<path d="M123.461 65.3352C123.477 63.8515 123.29 62.3773 122.903 60.9591C122.518 59.5937 121.977 58.2863 121.293 57.0614C119.958 54.7966 118.277 52.7806 116.314 51.0911C114.513 49.4967 112.572 48.0801 110.517 46.8595C108.528 45.6896 106.471 44.6444 104.359 43.7299L104.217 43.6911C105.798 46.8631 107.009 50.2301 107.822 53.7192C109.191 54.5861 110.49 55.5634 111.709 56.6451C113.068 57.8348 114.237 59.2436 115.174 60.8191C115.57 61.534 115.888 62.2935 116.123 63.085C116.215 63.4792 116.313 63.8515 116.364 64.2346C116.405 64.6152 116.428 64.9986 116.429 65.3831C116.418 66.1323 116.306 66.8787 116.097 67.6003C115.971 67.9839 115.826 68.3609 115.662 68.7288C115.493 69.1208 115.296 69.4983 115.073 69.86C114.098 71.4498 112.882 72.8659 111.472 74.0493C110.128 75.2129 108.69 76.2502 107.175 77.1488L106.597 77.5008C102.98 79.5484 99.1717 81.1881 95.2376 82.3939C91.2202 83.6402 87.1304 84.5931 82.9988 85.2474C80.9336 85.5854 78.8457 85.8493 76.7479 86.0632C74.6506 86.2769 72.557 86.3988 70.4475 86.494C67.8332 86.5903 65.2147 86.6173 62.6 86.5521L65.176 85.1293C65.7793 84.8097 66.2411 84.2565 66.4613 83.5892C66.6814 82.922 66.6416 82.195 66.3495 81.5708C66.0574 80.9467 65.5367 80.4751 64.9032 80.2592C64.27 80.0437 63.5765 80.1025 62.9729 80.4216L51.3151 86.1803C50.9191 86.3683 50.5703 86.6552 50.3011 87.0136C50.0581 87.3197 49.8759 87.6715 49.7626 88.0495C49.6492 88.4274 49.6073 88.8239 49.641 89.2149C49.675 89.6064 49.7836 89.9842 49.959 90.3285C50.1348 90.6725 50.375 90.975 50.6652 91.2191L60.4311 99.4617C60.9439 99.8088 61.564 99.9441 62.1754 99.8435C62.7869 99.7429 63.3465 99.4135 63.7498 98.9162C64.1528 98.4187 64.3718 97.7886 64.3643 97.1436C64.3571 96.4991 64.1233 95.8833 63.7092 95.415L61.7043 93.4852C69.1292 93.8105 76.5834 93.4046 83.9667 92.2732C88.4159 91.5945 92.8201 90.588 97.1466 89.2596C98.2485 88.9136 99.3308 88.5619 100.403 88.1614C101.476 87.7611 102.231 87.4811 103.137 87.128L103.632 86.9161C104.696 86.467 105.771 85.9753 106.806 85.472C107.84 84.9688 108.912 84.407 109.955 83.7908C112.062 82.5863 114.058 81.1735 115.913 79.573C116.88 78.7331 117.791 77.8241 118.639 76.8531C119.537 75.8463 120.337 74.7508 121.03 73.5813C121.39 72.9735 121.719 72.3458 122.016 71.7029C122.313 71.0195 122.566 70.3175 122.776 69.6019C123.2 68.2168 123.431 66.7806 123.461 65.3352Z"   fill="#000000" >
</path>
<path d="M10.375 60.2159C8.66132 62.217 7.19957 64.4331 6.02483 66.8119C5.41667 68.0856 4.92745 69.4149 4.5611 70.7831C4.16536 72.2197 3.95241 73.7035 3.9292 75.1966C3.92414 75.9738 3.97799 76.7503 4.08807 77.5193C4.12433 77.9025 4.18452 78.2822 4.26836 78.6572L4.40223 79.2379C4.44439 79.4267 4.49816 79.6127 4.5611 79.7952C4.78032 80.5263 5.06748 81.2344 5.41792 81.9094C5.75499 82.5754 6.15473 83.2048 6.61211 83.7898C7.05907 84.37 7.54761 84.9143 8.07584 85.4168C8.57551 85.8974 9.10259 86.347 9.65381 86.7633C10.7237 87.5721 11.9219 88.1852 13.1935 88.5755C13.6096 88.7126 14.0574 88.7099 14.4716 88.5665C14.8858 88.4234 15.2447 88.147 15.4962 87.7791C15.7477 87.4111 15.8781 86.9689 15.8693 86.5188C15.8605 86.0687 15.7119 85.6338 15.4462 85.2766C14.7926 84.3474 14.1401 83.5349 13.5541 82.722C13.0083 82.002 12.5395 81.2233 12.1564 80.3993L12.044 80.0973C12.0347 79.9969 11.9205 79.7374 11.9297 79.637C11.9297 79.4573 11.8527 79.3752 11.7851 79.1894C11.7175 79.0039 11.6821 78.796 11.637 78.5871L11.637 78.2851L11.637 77.9831C11.4297 77.1877 11.325 76.3672 11.3228 75.5435C11.3527 74.6641 11.4801 73.7929 11.7048 72.944C11.9642 72.0311 12.3033 71.1448 12.7187 70.2959C13.6493 68.4646 14.7929 66.7556 16.1228 65.2083C16.551 64.6972 17.0025 64.2092 17.4758 63.6981C17.4991 60.0437 17.9289 56.4049 18.7593 52.8523C17.8577 53.5723 16.9571 54.3153 16.0782 55.175C14.0533 56.6996 12.1459 58.3857 10.375 60.2159Z"   fill="#000000" >
</path>
</svg>
